<?xml version="1.0" encoding="utf-8"?>
<!-- Generator: Adobe Illustrator 16.0.0, SVG Export Plug-In . SVG Version: 6.00 Build 0)  -->
<!DOCTYPE svg PUBLIC "-//W3C//DTD SVG 1.1//EN" "http://www.w3.org/Graphics/SVG/1.1/DTD/svg11.dtd">
<svg version="1.1" id="Layer_1" xmlns="http://www.w3.org/2000/svg" xmlns:xlink="http://www.w3.org/1999/xlink" x="0px" y="0px"
	 width="256px" height="256px" viewBox="0 0 256 256" enable-background="new 0 0 256 256" xml:space="preserve">
<rect fill="#FAA739" width="256" height="256"/>
<g>
	<g>
		<g>
			<path fill="#3A4265" d="M156.791,193.38h-56.143c-4.771,0-8.639,3.866-8.639,8.637v5.759h73.42v-5.759
				C165.43,197.246,161.563,193.38,156.791,193.38z"/>
			<path fill="#454F76" d="M156.791,193.38h-56.143c-4.771,0-8.639,3.866-8.639,8.637v4.318c0-4.771,3.867-8.637,8.639-8.637h56.143
				c4.771,0,8.639,3.866,8.639,8.637v-4.318C165.43,197.246,161.563,193.38,156.791,193.38z"/>
			<rect x="103.527" y="173.225" fill="#3A4265" width="50.387" height="20.155"/>
			<rect x="103.527" y="173.225" fill="#2A3454" width="50.387" height="12.956"/>
		</g>
		<path fill="#3A4265" d="M182.705,72.451H73.295c-9.541,0-17.276,7.736-17.276,17.277v74.858c0,9.541,7.735,17.275,17.276,17.275
			h109.41c9.541,0,17.275-7.734,17.275-17.275V89.728C199.98,80.187,192.246,72.451,182.705,72.451z"/>
		<path fill="#16A6B1" d="M184.146,85.408H71.855c-1.589,0-2.879,1.29-2.879,2.879v73.42c0,1.591,1.29,2.879,2.879,2.879h112.292
			c1.59,0,2.879-1.288,2.879-2.879v-73.42C187.025,86.697,185.736,85.408,184.146,85.408z"/>
		<path fill="#454F76" d="M184.146,168.905h-12.959c-1.588,0-2.877,1.289-2.877,2.879c0,1.591,1.289,2.88,2.877,2.88h12.959
			c1.59,0,2.879-1.289,2.879-2.88C187.025,170.194,185.736,168.905,184.146,168.905z"/>
	</g>
	<g>
		<path fill="#16A6B1" d="M73.057,93.647v17.726v33.235c0,7.343,5.953,13.295,13.294,13.295h84.198
			c7.344,0,13.295-5.952,13.295-13.295v-33.235V93.647v-2.215H73.057V93.647z"/>
		<path fill="#0F9699" d="M182.283,150.853l-47.652-40.159c-3.086-2.601-8.089-2.601-11.176,0L75.011,151.52
			c2.334,3.825,6.534,6.384,11.34,6.384h84.198C175.633,157.903,180.047,155.048,182.283,150.853z"/>
		<path fill="#16A6B1" d="M180.439,153.469l-46.65-39.313c-2.648-2.233-6.948-2.233-9.596,0L76.93,153.986
			c2.409,2.418,5.74,3.917,9.421,3.917h84.198C174.482,157.903,178.006,156.187,180.439,153.469z"/>
	</g>
	<path fill="#3A4265" d="M133.789,50.439c-2.648-2.232-6.948-2.232-9.596,0L73.598,91.432l50.595,42.638
		c2.648,2.234,6.948,2.234,9.596,0l50.596-42.638L133.789,50.439z"/>
	<path fill="#2A3454" d="M178.305,86.505l-44.516-36.066c-2.648-2.232-6.948-2.232-9.596,0L79.704,86.486v10.091l44.489,37.493
		c2.648,2.234,6.948,2.234,9.596,0l44.516-37.515V86.505z"/>
	<path fill="#FFFFFF" d="M171.656,48.225H86.351v53.955l37.842,31.891c2.648,2.234,6.948,2.234,9.596,0l37.867-31.913V48.225z"/>
	<path fill="#A9E0F8" d="M124.193,125.208L86.351,93.316v8.864l37.842,31.891c2.648,2.234,6.948,2.234,9.596,0l37.867-31.913v-8.862
		l-37.867,31.913C131.141,127.442,126.841,127.442,124.193,125.208z"/>
	<path fill="#FAA73B" d="M105.347,85.409c0,8.731,5.211,16.279,12.768,19.853L107.31,76.43
		C106.053,79.172,105.347,82.209,105.347,85.409z M143.293,84.294c0-2.726-1.008-4.615-1.869-6.084
		c-1.146-1.817-2.223-3.356-2.223-5.172c0-2.029,1.576-3.917,3.803-3.917c0.1,0,0.195,0.012,0.291,0.018
		c-4.027-3.597-9.398-5.793-15.293-5.793c-7.915,0-14.878,3.955-18.927,9.945c0.531,0.016,1.032,0.026,1.457,0.026
		c2.37,0,6.038-0.279,6.038-0.279c1.221-0.072,1.364,1.676,0.144,1.816c0,0-1.227,0.139-2.591,0.21l8.249,23.896l4.958-14.478
		l-3.528-9.418c-1.221-0.071-2.377-0.21-2.377-0.21c-1.221-0.069-1.077-1.888,0.144-1.816c0,0,3.741,0.279,5.966,0.279
		c2.37,0,6.038-0.279,6.038-0.279c1.221-0.072,1.363,1.676,0.145,1.816c0,0-1.229,0.141-2.592,0.21l8.186,23.714l2.26-7.353
		C142.547,88.373,143.293,86.182,143.293,84.294z M128.398,87.338l-6.797,19.234c2.03,0.58,4.176,0.898,6.399,0.898
		c2.637,0,5.168-0.443,7.524-1.251c-0.061-0.095-0.115-0.196-0.164-0.303L128.398,87.338z M147.877,74.824
		c0.098,0.703,0.154,1.456,0.154,2.269c0,2.236-0.43,4.754-1.725,7.903l-6.918,19.481c6.734-3.824,11.264-10.931,11.264-19.068
		C150.652,81.572,149.645,77.967,147.877,74.824z M128,55.205c-16.68,0-30.202,13.522-30.202,30.204
		c0,16.679,13.522,30.202,30.202,30.202c16.682,0,30.204-13.522,30.204-30.202C158.203,68.728,144.682,55.205,128,55.205z
		 M128,111.835c-14.595,0-26.427-11.832-26.427-26.427c0-14.596,11.832-26.428,26.427-26.428c14.596,0,26.426,11.832,26.426,26.428
		C154.426,100.004,142.596,111.835,128,111.835z"/>
</g>
</svg>
